<svg width="42" height="50" viewBox="0 0 42 50" fill="none" xmlns="http://www.w3.org/2000/svg">
<path d="M4.0214 23.725C1.74574 26.5672 0.492432 30.1761 0.492432 33.8869C0.492432 42.7716 7.72078 50 16.6056 50C25.4903 50 32.7187 42.7716 32.7187 33.8869C32.7187 30.176 31.4654 26.5671 29.1897 23.725L16.6057 8.0083L4.0214 23.725ZM29.7891 33.8869C29.7891 41.1562 23.875 47.0703 16.6057 47.0703C9.33629 47.0703 3.42219 41.1562 3.42219 33.8869C3.42219 30.8391 4.44718 27.8806 6.30839 25.5562L16.6057 12.6957L26.9029 25.5563C28.764 27.8806 29.7891 30.8391 29.7891 33.8869Z" fill="white"/>
<path d="M41.5077 11.8168C41.5077 10.1352 40.9555 8.55636 39.9108 7.25052L34.1835 0L28.4562 7.25061C27.4116 8.55636 26.8594 10.1353 26.8594 11.8169C26.8594 15.8554 30.145 19.141 34.1835 19.141C38.2221 19.141 41.5077 15.8553 41.5077 11.8168ZM29.789 11.8168C29.789 10.8063 30.12 9.85928 30.7462 9.07784L34.1835 4.72632L37.6209 9.07784C38.2471 9.85918 38.578 10.8062 38.578 11.8168C38.578 14.2399 36.6066 16.2113 34.1835 16.2113C31.7604 16.2113 29.789 14.2399 29.789 11.8168Z" fill="white"/>
</svg>
