<svg width="30" height="30" viewBox="0 0 30 30" fill="none" xmlns="http://www.w3.org/2000/svg">
<path d="M29.331 12.3887L25.893 11.5433C25.6861 10.8912 25.4203 10.2587 25.099 9.65373C25.6135 8.79627 26.7012 6.98344 26.7012 6.98344C26.9087 6.63762 26.8542 6.19494 26.569 5.90977L24.0831 3.42387C23.7979 3.13869 23.3552 3.0842 23.0094 3.29168C22.9871 3.30504 21.2061 4.37367 20.336 4.89451C19.7343 4.57629 19.1058 4.31285 18.458 4.10736C18.1985 3.05408 17.6112 0.66873 17.6112 0.66873C17.5145 0.276035 17.1622 0 16.7578 0H13.2422C12.8377 0 12.4854 0.276035 12.3888 0.668789C12.147 1.65082 11.7428 3.29256 11.5421 4.10707C10.8529 4.32562 10.1861 4.60969 9.54984 4.95562C9.1732 4.72969 8.61193 4.39289 8.09268 4.08135L6.77654 3.29168C6.43055 3.0842 5.98805 3.13875 5.70287 3.42387L3.21686 5.90977C2.93168 6.19494 2.87719 6.63762 3.08467 6.98344C3.09639 7.00307 4.12676 8.72039 4.79977 9.84686C4.52367 10.3924 4.29205 10.9593 4.10736 11.5413C2.93537 11.8329 0.695859 12.3821 0.669609 12.3886C0.276445 12.485 0 12.8374 0 13.2422V16.7578C0 17.1626 0.276504 17.515 0.669668 17.6114C0.695625 17.6178 2.91855 18.1628 4.10836 18.4573C4.31725 19.1195 4.58789 19.7623 4.91672 20.378L3.38191 22.9362C3.17443 23.282 3.22893 23.7247 3.5141 24.0098L6.00006 26.4958C6.28523 26.781 6.72785 26.8355 7.07373 26.628C7.09535 26.615 8.80008 25.5922 9.63697 25.0912C10.2475 25.4163 10.8858 25.6849 11.544 25.8935L12.3887 29.3306C12.4851 29.7237 12.8375 30 13.2422 30H16.7578C17.1623 30 17.5147 29.7238 17.6113 29.331L18.4566 25.8933C19.1327 25.6788 19.785 25.4017 20.4053 25.0655C21.2506 25.5727 23.0094 26.628 23.0094 26.628C23.3552 26.8355 23.7979 26.7811 24.0831 26.4959L26.569 24.0099C26.8542 23.7247 26.9087 23.2821 26.7012 22.9362C26.7012 22.9362 25.6306 21.1519 25.1216 20.3036C25.4326 19.7125 25.6907 19.0945 25.8928 18.4572C26.9371 18.1995 29.3023 17.6183 29.3308 17.6113C29.7237 17.5148 30 17.1625 30 16.7578V13.2422C30 12.8376 29.7238 12.4853 29.331 12.3887ZM28.2422 16.0687C27.2273 16.3182 25.3873 16.7706 25.0359 16.8585L24.9697 16.8751C24.6632 16.9548 24.4232 17.1933 24.3416 17.4993C24.1192 18.333 23.7853 19.1324 23.3489 19.8752C23.1861 20.1524 23.1876 20.4966 23.3529 20.7724C23.3987 20.8486 24.3191 22.3827 24.8408 23.2522L23.3254 24.7676C22.4438 24.2387 20.8811 23.301 20.8679 23.2931C20.5881 23.1251 20.2384 23.1259 19.9596 23.2951C19.1979 23.7571 18.3712 24.1091 17.5023 24.3413C17.199 24.4223 16.9618 24.6589 16.8804 24.9622C16.8319 25.1427 16.7841 25.3337 16.7832 25.337L16.0688 28.2422H13.9314L13.2978 25.6616L13.1269 24.9782C13.0495 24.6681 12.8096 24.4245 12.5008 24.3421C11.6493 24.115 10.8321 23.771 10.0721 23.3198C9.79623 23.156 9.45281 23.1557 9.17654 23.3188C8.98729 23.4306 7.57963 24.2746 6.75768 24.7677L5.24215 23.2522L6.68713 20.8437C6.85359 20.5662 6.85412 20.2197 6.68842 19.9417C6.23232 19.1763 5.88656 18.3554 5.66098 17.5017C5.57912 17.1919 5.3352 16.9513 5.02447 16.8736C4.39535 16.7163 2.70627 16.3013 1.75775 16.0685V13.9314C2.71529 13.6961 4.42594 13.2752 5.02506 13.1236C5.33391 13.0454 5.57631 12.8062 5.65857 12.4983C5.8674 11.7163 6.17549 10.9615 6.57439 10.255C6.72943 9.98045 6.72545 9.64389 6.56402 9.37301C6.13922 8.66016 5.38746 7.40561 4.94496 6.66762L6.46049 5.15203L7.18822 5.58867C8.06525 6.1149 9.06205 6.71297 9.089 6.72908C9.36838 6.89607 9.71725 6.89502 9.99557 6.72621C10.7773 6.2523 11.6201 5.89289 12.5008 5.65793C12.8092 5.57566 13.0488 5.33262 13.1266 5.02301C13.1431 4.95732 13.6581 2.86588 13.931 1.75781H16.069C16.357 2.92723 16.8671 4.99875 16.8732 5.02277C16.9509 5.33262 17.1906 5.5759 17.4993 5.65822C18.342 5.88299 19.1512 6.22225 19.9045 6.6665C20.1807 6.82945 20.5239 6.82898 20.7996 6.66527C21.0462 6.51891 22.4919 5.65201 23.3254 5.15197L24.8408 6.66744C24.3113 7.54998 23.3689 9.1207 23.3294 9.18645C23.1632 9.4633 23.1622 9.809 23.3269 10.0869C23.7738 10.8411 24.115 11.6521 24.341 12.4975C24.422 12.8002 24.6579 13.0369 24.9604 13.1188C25.1418 13.1679 25.3338 13.2159 25.337 13.2167L28.2422 13.9311V16.0687Z" fill="white"/>
</svg>
