<svg width="36" height="46" viewBox="0 0 36 46" fill="none" xmlns="http://www.w3.org/2000/svg">
<path d="M33.5826 20.0773L32.9632 18.914L31.7865 19.5076C30.8866 19.9615 29.9139 20.188 28.8992 20.1828C25.4252 20.1627 22.5989 17.2782 22.5989 13.753V11.4876C22.5989 7.81329 21.3403 4.20526 19.055 1.32822L18.0001 0L4.46872 17.0351C1.87606 20.1309 0.416521 24.0589 0.358405 28.098C0.290589 32.8138 2.10152 37.2895 5.45777 40.7003C8.81231 44.1096 13.2552 45.9916 17.9682 46H17.9832H17.9848H18.0003H18.0004C22.7073 45.9998 27.1331 44.1693 30.4649 40.8434C33.8045 37.5097 35.6437 33.0751 35.6437 28.3563C35.6436 25.4723 34.931 22.6094 33.5826 20.0773ZM22.7826 35.83C23.0426 35.8306 23.3063 35.811 23.5645 35.7693C23.7347 36.3197 23.8204 36.8936 23.8204 37.4851C23.8204 39.0417 23.2137 40.5046 22.1119 41.6043C21.0128 42.7015 19.5529 43.3054 18 43.3054C17.9962 43.3054 17.9924 43.3054 17.9887 43.3054C16.4389 43.3024 14.9748 42.6804 13.8662 41.5537C12.7567 40.4262 12.158 38.9507 12.1803 37.3993C12.1995 36.0654 12.6822 34.7681 13.5396 33.7465L17.8032 28.3797C17.9867 28.9201 18.0828 29.4903 18.0828 30.0656V31.062C18.0829 33.676 20.1912 35.8149 22.7826 35.83ZM28.5611 38.9364C27.6801 39.8158 26.7089 40.5718 25.6683 41.1958C26.2222 40.0537 26.5151 38.7921 26.5151 37.4851C26.5151 36.0933 26.171 34.7114 25.52 33.4889L24.9006 32.3256L23.7239 32.9192C23.4359 33.0644 23.1251 33.1363 22.7983 33.1353C21.6841 33.1288 20.7776 32.1987 20.7776 31.0619V30.0655C20.7776 28.2796 20.1659 26.526 19.0551 25.1276L18.0001 23.7994L11.4635 32.0285C10.2162 33.5216 9.51401 35.4144 9.48599 37.3604C9.46686 38.6904 9.75726 39.9801 10.3241 41.151C9.26547 40.5057 8.27625 39.7226 7.37846 38.8103C4.5316 35.9171 2.99544 32.1264 3.05284 28.1367C3.10215 24.7099 4.34225 21.3774 6.54472 18.7532L6.5564 18.7393L17.9297 4.42111C19.2115 6.54211 19.9043 8.99662 19.9043 11.4876V13.753C19.9043 18.7555 23.9324 22.8488 28.8835 22.8775C29.8523 22.8848 30.8137 22.7321 31.7289 22.4358C32.5296 24.2948 32.9489 26.3191 32.9489 28.3564C32.9489 32.3545 31.3907 36.1118 28.5611 38.9364Z" fill="white"/>
</svg>
