<svg width="18" height="18" viewBox="0 0 18 18" fill="none" xmlns="http://www.w3.org/2000/svg">
<path d="M15.5092 12.5281C14.4218 11.5981 13.3183 11.0347 12.2442 11.9633L11.6029 12.5246C11.1337 12.932 10.2613 14.8356 6.88815 10.9553C3.51574 7.07999 5.52261 6.47659 5.99254 6.07269L6.63738 5.51074C7.70579 4.58001 7.30259 3.40834 6.53202 2.20225L6.067 1.47171C5.29291 0.268434 4.44999 -0.52181 3.37877 0.407517L2.79996 0.913273C2.32651 1.25817 1.00312 2.37926 0.682104 4.50906C0.295763 7.06453 1.51449 9.99089 4.30669 13.2017C7.09537 16.414 9.82575 18.0275 12.4121 17.9994C14.5616 17.9762 15.8597 16.8228 16.2657 16.4035L16.8466 15.897C17.915 14.9684 17.2512 14.0229 16.1632 13.0908L15.5092 12.5281Z" fill="black"/>
</svg>
