<svg width="30" height="30" viewBox="0 0 30 30" fill="none" xmlns="http://www.w3.org/2000/svg">
<path d="M29.9998 3.56959C30.0096 2.61211 29.6421 1.71199 28.9651 1.03488C28.2969 0.366621 27.4114 0 26.4679 0C26.4554 0 26.4429 5.85937e-05 26.4303 0.000175781C25.4728 0.0100195 24.5804 0.395977 23.9175 1.0868L18.6665 6.55857L4.92633 2.01146L0.868535 6.06926L12.3512 13.1394L7.62645 18.0628L3.91816 17.454L0 21.3721L6.38988 23.6102L8.62793 30L12.5461 26.0818L11.9373 22.3736L16.8607 17.6488L23.9309 29.1315L27.9887 25.0737L23.4416 11.3336L28.9133 6.08256C29.6041 5.41951 29.9899 4.52707 29.9998 3.56959ZM27.695 4.81301L21.4223 10.8326L25.9774 24.5967L24.2614 26.3126L17.2157 14.8695L10.051 21.7451L10.6635 25.476L9.36316 26.7764L7.77059 22.2294L3.22359 20.6368L4.52396 19.3365L8.25492 19.949L15.1305 12.7844L3.68748 5.73867L5.4034 4.02275L19.1675 8.57777L25.1871 2.30514C25.5198 1.95832 25.9679 1.76461 26.4485 1.75963C26.4548 1.75951 26.4611 1.75951 26.4673 1.75951C26.9409 1.75951 27.3855 1.94355 27.721 2.27906C28.061 2.61896 28.2454 3.07084 28.2404 3.55148C28.2354 4.03213 28.0417 4.48014 27.695 4.81301Z" fill="white"/>
</svg>
